<svg id="change" xmlns="http://www.w3.org/2000/svg" width="20" height="20" viewBox="0 0 20 20">
  <path id="Path_19826" data-name="Path 19826" d="M18.452,2.176a2.176,2.176,0,1,0-2.176,2.176A2.178,2.178,0,0,0,18.452,2.176Z" fill="#c1c1c1"/>
  <path id="Path_19827" data-name="Path 19827" d="M16.276,4.352a3.728,3.728,0,0,0-3.724,3.724v.669a.586.586,0,0,0,.586.586h6.276A.586.586,0,0,0,20,8.745V8.075A3.728,3.728,0,0,0,16.276,4.352Z" fill="#c1c1c1"/>
  <path id="Path_19828" data-name="Path 19828" d="M5.9,12.845a2.176,2.176,0,1,0-2.176,2.176A2.178,2.178,0,0,0,5.9,12.845Z" fill="#c1c1c1"/>
  <path id="Path_19829" data-name="Path 19829" d="M3.724,15.021A3.728,3.728,0,0,0,0,18.745v.669A.586.586,0,0,0,.586,20H6.862a.586.586,0,0,0,.586-.586v-.669a3.728,3.728,0,0,0-3.724-3.724Z" fill="#c1c1c1"/>
  <path id="Path_19830" data-name="Path 19830" d="M10.414,1.427,9.159.172A.586.586,0,0,0,8.33,1l.257.257A7.5,7.5,0,0,0,1.255,8.745a.586.586,0,0,0,1.172,0A6.325,6.325,0,0,1,8.583,2.429l-.253.253a.586.586,0,0,0,.829.829l1.255-1.255A.586.586,0,0,0,10.414,1.427Z" fill="#c1c1c1"/>
  <path id="Path_19831" data-name="Path 19831" d="M18.159,10.669a.586.586,0,0,0-.586.586,6.325,6.325,0,0,1-6.156,6.316l.253-.253a.586.586,0,1,0-.829-.829L9.586,17.745a.586.586,0,0,0,0,.829l1.255,1.255A.586.586,0,0,0,11.67,19l-.257-.257a7.5,7.5,0,0,0,7.332-7.488.586.586,0,0,0-.586-.586Z" fill="#c1c1c1"/>
</svg>
