<svg id="icon_user_info" xmlns="http://www.w3.org/2000/svg" width="16.988" height="14.823" viewBox="0 0 16.988 14.823">
  <circle id="Ellipse_238" data-name="Ellipse 238" cx="2.887" cy="2.887" r="2.887" transform="translate(5.607)" fill="#c1c1c1"/>
  <circle id="Ellipse_239" data-name="Ellipse 239" cx="1.825" cy="1.825" r="1.825" transform="translate(12.509 2.123)" fill="#c1c1c1"/>
  <circle id="Ellipse_240" data-name="Ellipse 240" cx="1.825" cy="1.825" r="1.825" transform="translate(0.83 2.123)" fill="#c1c1c1"/>
  <path id="Path_19171" data-name="Path 19171" d="M4.452,241.042a2.951,2.951,0,0,0-2.2-.511A2.249,2.249,0,0,0,0,242.771v3.624a.975.975,0,0,0,.976.972c2.323,0,2.044.042,2.044-.1C3.019,244.7,2.715,242.816,4.452,241.042Z" transform="translate(0 -233.63)" fill="#c1c1c1"/>
  <path id="Path_19172" data-name="Path 19172" d="M125.481,239.889a4.926,4.926,0,0,0-3.8.9c-1.82,1.458-1.47,3.421-1.47,5.822a1.164,1.164,0,0,0,1.162,1.162c7,0,7.282.226,7.7-.694.136-.311.1-.212.1-3.188A4.023,4.023,0,0,0,125.481,239.889Z" transform="translate(-116.197 -232.974)" fill="#c1c1c1"/>
  <path id="Path_19173" data-name="Path 19173" d="M380.01,240.533a2.949,2.949,0,0,0-2.2.511c1.724,1.76,1.433,3.515,1.433,6.224,0,.143-.232.1,2.009.1a1.01,1.01,0,0,0,1.011-1.007v-3.589A2.249,2.249,0,0,0,380.01,240.533Z" transform="translate(-365.274 -233.632)" fill="#c1c1c1"/>
</svg>
