<svg xmlns="http://www.w3.org/2000/svg" width="24" height="27.163" viewBox="0 0 24 27.163">
  <g id="icon_pickup_location_manage_load" transform="translate(-50 -77)">
    <path id="Union_26" data-name="Union 26" d="M10.126,23.854a12,12,0,1,1,4.1-.06l-2.063,3.369Z" transform="translate(50 77)" fill="#8ecf00"/>
    <g id="Group_2679" data-name="Group 2679" transform="translate(56.667 83)">
      <path id="Union_24" data-name="Union 24" d="M2.862,11.585V7.159c-.221-.032-.425-.048-.624-.092A2.841,2.841,0,0,1,0,4.283c0-.9,0-1.8,0-2.694V1.443H1.432v.192q0,1.28,0,2.56a1.429,1.429,0,0,0,1.52,1.519H4.67q1.216,0,2.433,0A2.833,2.833,0,0,1,9.958,8.107a2.684,2.684,0,0,1,.04.466c0,.9,0,1.807,0,2.711,0,.038,0,.076-.008.125H8.569v-.182c0-.892.006-1.785,0-2.677a1.417,1.417,0,0,0-1.308-1.4c-.032,0-.065,0-.122,0v4.439Zm2.03-7.3A2.143,2.143,0,0,1,4.613.034.894.894,0,0,0,4.72,0h.535a5.287,5.287,0,0,1,.708.236,2.139,2.139,0,0,1-.982,4.047Z" fill="#fff" stroke="rgba(0,0,0,0)" stroke-width="1"/>
    </g>
  </g>
</svg>
