<svg id="icon_progress" xmlns="http://www.w3.org/2000/svg" width="22.792" height="19.915" viewBox="0 0 22.792 19.915">
  <g id="List" transform="translate(0 0)">
    <path id="Path_2536" data-name="Path 2536" d="M132.805,61.456l13.533.014a.712.712,0,0,0,0-1.425l-13.533-.014a.712.712,0,0,0,0,1.425Z" transform="translate(-124.272 -57.917)" fill="#292929"/>
    <path id="Path_2537" data-name="Path 2537" d="M146.578,180.228l-13.533-.014a.712.712,0,0,0,0,1.424l13.533.014a.712.712,0,1,0,0-1.424Z" transform="translate(-124.498 -170.983)" fill="#292929"/>
    <path id="Path_2538" data-name="Path 2538" d="M146.578,300.531l-13.533-.014a.712.712,0,0,0,0,1.424l13.533.014a.712.712,0,1,0,0-1.424Z" transform="translate(-124.498 -284.163)" fill="#292929"/>
    <path id="Path_2539" data-name="Path 2539" d="M2.842,24.3a2.842,2.842,0,1,0,2.842,2.842A2.842,2.842,0,0,0,2.842,24.3Zm-.007,4.267a1.425,1.425,0,1,1,0-2.849,1.425,1.425,0,0,1,0,2.849Z" transform="translate(0 -24.301)" fill="#292929"/>
    <path id="Path_2540" data-name="Path 2540" d="M2.842,144.6a2.842,2.842,0,1,0,2.842,2.842A2.842,2.842,0,0,0,2.842,144.6Zm-.007,4.266a1.425,1.425,0,1,1,0-2.849,1.425,1.425,0,0,1,0,2.849Z" transform="translate(0 -137.481)" fill="#292929"/>
    <path id="Path_2541" data-name="Path 2541" d="M2.842,264.667a2.842,2.842,0,1,0,2.842,2.842A2.842,2.842,0,0,0,2.842,264.667Zm-.007,4.266a1.425,1.425,0,1,1,0-2.849,1.425,1.425,0,0,1,0,2.849Z" transform="translate(0 -250.436)" fill="#292929"/>
  </g>
</svg>
