<svg id="icon_user_groups" xmlns="http://www.w3.org/2000/svg" width="17.297" height="17.297" viewBox="0 0 17.297 17.297">
  <path id="Path_19189" data-name="Path 19189" d="M210.1,3.885a1.607,1.607,0,0,0,1.6-1.6V1.6a1.6,1.6,0,1,0-3.209,0V2.28A1.607,1.607,0,0,0,210.1,3.885Z" transform="translate(-201.456)" fill="#c1c1c1"/>
  <path id="Path_19190" data-name="Path 19190" d="M183.534,423.6a2.276,2.276,0,0,1-1.748-.818,2.526,2.526,0,0,0-.786,1.832v.676a.507.507,0,0,0,.507.507h4.054a.507.507,0,0,0,.507-.507v-.676a2.526,2.526,0,0,0-.786-1.832A2.276,2.276,0,0,1,183.534,423.6Z" transform="translate(-174.885 -408.502)" fill="#c1c1c1"/>
  <path id="Path_19191" data-name="Path 19191" d="M38.767,129.472a1.268,1.268,0,0,0,1.267-1.267v-.676a1.269,1.269,0,0,0-.76-1.161v-.309a.846.846,0,0,1,.845-.845h4.257v1.153a1.269,1.269,0,0,0-.76,1.161v.676a1.267,1.267,0,1,0,2.534,0v-.676a1.269,1.269,0,0,0-.76-1.161v-1.153h4.257a.846.846,0,0,1,.845.845v.309a1.269,1.269,0,0,0-.76,1.161v.676a1.267,1.267,0,0,0,2.534,0v-.676a1.269,1.269,0,0,0-.76-1.161v-.309a1.86,1.86,0,0,0-1.858-1.858H45.388v-1.047h2.2a.507.507,0,0,0,.507-.507v-.676a3.206,3.206,0,0,0-1.267-2.553,2.614,2.614,0,0,1-3.884,0,3.206,3.206,0,0,0-1.267,2.553v.676a.507.507,0,0,0,.507.507h2.2V124.2H40.118a1.86,1.86,0,0,0-1.858,1.858v.309a1.269,1.269,0,0,0-.76,1.161v.676A1.268,1.268,0,0,0,38.767,129.472Z" transform="translate(-36.233 -115.385)" fill="#c1c1c1"/>
  <path id="Path_19192" data-name="Path 19192" d="M2.534,423.6a2.276,2.276,0,0,1-1.748-.818A2.526,2.526,0,0,0,0,424.617v.676a.507.507,0,0,0,.507.507H4.561a.507.507,0,0,0,.507-.507v-.676a2.526,2.526,0,0,0-.786-1.832A2.276,2.276,0,0,1,2.534,423.6Z" transform="translate(0 -408.502)" fill="#c1c1c1"/>
  <path id="Path_19193" data-name="Path 19193" d="M366.282,422.785a2.277,2.277,0,0,1-3.5,0,2.526,2.526,0,0,0-.786,1.832v.676a.507.507,0,0,0,.507.507h4.054a.507.507,0,0,0,.507-.507v-.676A2.526,2.526,0,0,0,366.282,422.785Z" transform="translate(-349.771 -408.502)" fill="#c1c1c1"/>
</svg>
