<svg id="icon_dashboard" xmlns="http://www.w3.org/2000/svg" width="13.594" height="13.596" viewBox="0 0 13.594 13.596">
  <path id="Path_19275" data-name="Path 19275" d="M5.24,0H.991A.992.992,0,0,0,0,.991V3.541a.992.992,0,0,0,.991.991H5.24a.992.992,0,0,0,.991-.991V.991A.992.992,0,0,0,5.24,0Zm0,0" fill="#8ecf00"/>
  <path id="Path_19276" data-name="Path 19276" d="M5.24,213.332H.991a.992.992,0,0,0-.991.991v5.948a.992.992,0,0,0,.991.991H5.24a.992.992,0,0,0,.991-.991v-5.948A.992.992,0,0,0,5.24,213.332Zm0,0" transform="translate(0 -207.667)" fill="#8ecf00"/>
  <path id="Path_19277" data-name="Path 19277" d="M282.572,341.332h-4.249a.992.992,0,0,0-.991.991v2.549a.992.992,0,0,0,.991.991h4.249a.992.992,0,0,0,.991-.991v-2.549A.992.992,0,0,0,282.572,341.332Zm0,0" transform="translate(-269.968 -332.268)" fill="#8ecf00"/>
  <path id="Path_19278" data-name="Path 19278" d="M282.572,0h-4.249a.992.992,0,0,0-.991.991V6.939a.992.992,0,0,0,.991.991h4.249a.992.992,0,0,0,.991-.991V.991A.992.992,0,0,0,282.572,0Zm0,0" transform="translate(-269.968)" fill="#8ecf00"/>
</svg>
