<svg xmlns="http://www.w3.org/2000/svg" width="220" height="166" viewBox="0 0 220 166">
  <g id="icon_upload_complate" transform="translate(-987 -240)">
    <rect id="icon_upload_bg" width="220" height="166" rx="5" transform="translate(987 240)" fill="#eaeaea"/>
    <path id="icon_upload" d="M44.275.563A44.275,44.275,0,1,0,88.551,44.838,44.268,44.268,0,0,0,44.275.563Zm0,17.139A15.711,15.711,0,1,1,28.565,33.412,15.711,15.711,0,0,1,44.275,17.7Zm0,61.414A34.211,34.211,0,0,1,18.121,66.94,19.9,19.9,0,0,1,35.706,56.264a4.368,4.368,0,0,1,1.268.2,23.638,23.638,0,0,0,7.3,1.232,23.548,23.548,0,0,0,7.3-1.232,4.368,4.368,0,0,1,1.268-.2A19.9,19.9,0,0,1,70.43,66.94,34.211,34.211,0,0,1,44.275,79.116Z" transform="translate(1052.449 278.162)" fill="#fff"/>
  </g>
</svg>
