<svg xmlns="http://www.w3.org/2000/svg" xmlns:xlink="http://www.w3.org/1999/xlink" width="39" height="39" viewBox="0 0 39 39">
  <defs>
    <filter id="oval" x="0" y="0" width="39" height="39" filterUnits="userSpaceOnUse">
      <feOffset dy="3" input="SourceAlpha"/>
      <feGaussianBlur stdDeviation="3" result="blur"/>
      <feFlood flood-opacity="0.161"/>
      <feComposite operator="in" in2="blur"/>
      <feComposite in="SourceGraphic"/>
    </filter>
  </defs>
  <g id="icon_delete_complete" transform="translate(9 6)">
    <g transform="matrix(1, 0, 0, 1, -9, -6)" filter="url(#oval)">
      <g id="oval-2" data-name="oval" transform="translate(9 6)" fill="#fff">
        <path d="M 10.5 20.75 C 4.848130226135254 20.75 0.25 16.15187072753906 0.25 10.5 C 0.25 4.848130226135254 4.848130226135254 0.25 10.5 0.25 C 16.15187072753906 0.25 20.75 4.848130226135254 20.75 10.5 C 20.75 16.15187072753906 16.15187072753906 20.75 10.5 20.75 Z" stroke="none"/>
        <path d="M 10.5 0.5 C 4.985979080200195 0.5 0.5 4.985979080200195 0.5 10.5 C 0.5 16.01401901245117 4.985979080200195 20.5 10.5 20.5 C 16.01401901245117 20.5 20.5 16.01401901245117 20.5 10.5 C 20.5 4.985979080200195 16.01401901245117 0.5 10.5 0.5 M 10.5 0 C 16.29899024963379 0 21 4.701009750366211 21 10.5 C 21 16.29899024963379 16.29899024963379 21 10.5 21 C 4.701009750366211 21 0 16.29899024963379 0 10.5 C 0 4.701009750366211 4.701009750366211 0 10.5 0 Z" stroke="none" fill="#ff043e"/>
      </g>
    </g>
    <path id="icon_delete" d="M8.083,13.827a1.169,1.169,0,0,0,1.166,1.166h4.664a1.169,1.169,0,0,0,1.166-1.166v-7h-7Zm7.578-8.744h-2.04L13.038,4.5H10.123l-.583.583H7.5V6.249h8.161Z" transform="translate(-0.976 0.754)" fill="#ff043e"/>
  </g>
</svg>
