<svg xmlns="http://www.w3.org/2000/svg" width="23.397" height="28.231" viewBox="0 0 23.397 28.231">
  <g id="Notification" transform="translate(0.65 0.65)" opacity="0.9">
    <path id="Icon_material-notifications-none" data-name="Icon material-notifications-none" d="M17.048,30.681a3.229,3.229,0,0,0,2.825-3.2H14.349C14.349,29,15.529,30.681,17.048,30.681Zm8.286-8.286V15.489c0-4.24-2.251-7.789-6.215-8.728V5.822a2.072,2.072,0,1,0-4.143,0v.939c-3.95.939-6.215,4.475-6.215,8.728v6.905L6,25.156v1.381H28.1V25.156Zm-2.762,1.381H11.524V15.489c0-3.425,2.085-6.215,5.524-6.215s5.524,2.79,5.524,6.215Z" transform="translate(-6 -3.75)" fill="#7bb105" stroke="#fff" stroke-width="1.3"/>
    <g id="Path_19139" data-name="Path 19139" transform="translate(12.77 2.322)" fill="#7bb105">
      <path d="M 4.643545150756836 8.63709545135498 C 2.441495180130005 8.63709545135498 0.6500051617622375 6.845595359802246 0.6500051617622375 4.643545150756836 C 0.6500051617622375 2.441495180130005 2.441495180130005 0.6500051617622375 4.643545150756836 0.6500051617622375 C 6.845595359802246 0.6500051617622375 8.63709545135498 2.441495180130005 8.63709545135498 4.643545150756836 C 8.63709545135498 6.845595359802246 6.845595359802246 8.63709545135498 4.643545150756836 8.63709545135498 Z" stroke="none"/>
      <path d="M 4.643545150756836 1.299994945526123 C 2.799905300140381 1.299994945526123 1.299994945526123 2.799905300140381 1.299994945526123 4.643545150756836 C 1.299994945526123 6.487174987792969 2.799905300140381 7.987085342407227 4.643545150756836 7.987085342407227 C 6.487174987792969 7.987085342407227 7.987085342407227 6.487174987792969 7.987085342407227 4.643545150756836 C 7.987085342407227 2.799905300140381 6.487174987792969 1.299994945526123 4.643545150756836 1.299994945526123 M 4.643545150756836 -4.76837158203125e-06 C 7.208105087280273 -4.76837158203125e-06 9.28708553314209 2.078985214233398 9.28708553314209 4.643545150756836 C 9.28708553314209 7.208105087280273 7.208105087280273 9.28708553314209 4.643545150756836 9.28708553314209 C 2.078985214233398 9.28708553314209 -4.76837158203125e-06 7.208105087280273 -4.76837158203125e-06 4.643545150756836 C -4.76837158203125e-06 2.078985214233398 2.078985214233398 -4.76837158203125e-06 4.643545150756836 -4.76837158203125e-06 Z" stroke="none" fill="#fff"/>
    </g>
  </g>
</svg>
