<svg xmlns="http://www.w3.org/2000/svg" width="475.839" height="354.604" viewBox="0 0 475.839 354.604">
  <g id="vector_forgot_password" transform="translate(-53 -56.7)">
    <g id="Group_351" data-name="Group 351" transform="translate(53 56.7)">
      <g id="Background_Complete" data-name="Background Complete">
        <g id="Group_351-2" data-name="Group 351">
          <rect id="Rectangle_1899" data-name="Rectangle 1899" width="475.839" height="0.238" transform="translate(0 311.623)" fill="#ebebeb"/>
          <rect id="Rectangle_1900" data-name="Rectangle 1900" width="24.229" height="0.238" transform="translate(276.185 318.104)" fill="#ebebeb"/>
          <rect id="Rectangle_1901" data-name="Rectangle 1901" width="57.418" height="0.238" transform="translate(376.019 323.253)" fill="#ebebeb"/>
          <rect id="Rectangle_1902" data-name="Rectangle 1902" width="59.321" height="0.238" transform="translate(211.71 318.223)" fill="#ebebeb"/>
          <rect id="Rectangle_1903" data-name="Rectangle 1903" width="12.411" height="0.238" transform="translate(160.834 325.342)" fill="#ebebeb"/>
          <rect id="Rectangle_1904" data-name="Rectangle 1904" width="56.507" height="0.238" transform="translate(185.299 325.342)" fill="#ebebeb"/>
          <rect id="Rectangle_1905" data-name="Rectangle 1905" width="36.595" height="0.238" transform="translate(49.924 321.324)" fill="#ebebeb"/>
          <path id="Path_324" data-name="Path 324" d="M227.407,324.132H43.639a5.439,5.439,0,0,1-5.432-5.432V60.384a5.438,5.438,0,0,1,5.432-5.431H227.407a5.438,5.438,0,0,1,5.431,5.431V318.7A5.439,5.439,0,0,1,227.407,324.132ZM43.639,55.191a5.2,5.2,0,0,0-5.194,5.193V318.7a5.2,5.2,0,0,0,5.194,5.194H227.407A5.2,5.2,0,0,0,232.6,318.7V60.384a5.2,5.2,0,0,0-5.193-5.193Z" transform="translate(-1.846 -54.953)" fill="#ebebeb"/>
          <path id="Path_325" data-name="Path 325" d="M443.7,324.132H259.936a5.438,5.438,0,0,1-5.431-5.432V60.384a5.437,5.437,0,0,1,5.431-5.431H443.7a5.438,5.438,0,0,1,5.433,5.431V318.7A5.439,5.439,0,0,1,443.7,324.132ZM259.936,55.191a5.2,5.2,0,0,0-5.193,5.193V318.7a5.2,5.2,0,0,0,5.193,5.194H443.7a5.2,5.2,0,0,0,5.2-5.194V60.384a5.2,5.2,0,0,0-5.2-5.193Z" transform="translate(-12.298 -54.953)" fill="#ebebeb"/>
        </g>
        <g id="Group_360" data-name="Group 360" transform="translate(51.709 23.279)">
          <g id="Group_354" data-name="Group 354" transform="translate(21.911 161.55)">
            <g id="Group_352" data-name="Group 352" transform="translate(45.845)">
              <path id="Path_326" data-name="Path 326" d="M192.558,293.42H129.366l-3.836-44.253h63.192Z" transform="translate(-125.53 -249.167)" fill="#e6e6e6"/>
              <path id="Path_327" data-name="Path 327" d="M196,293.42H132.806l-3.836-44.253h63.192Z" transform="translate(-125.696 -249.167)" fill="#f0f0f0"/>
              <path id="Path_328" data-name="Path 328" d="M141.97,284.4l-2.106-25.247h44.186l2.106,25.247Z" transform="translate(-126.223 -249.649)" fill="#fff"/>
            </g>
            <g id="Group_353" data-name="Group 353" transform="translate(0 44.253)">
              <rect id="Rectangle_1906" data-name="Rectangle 1906" width="7.414" height="82.539" transform="translate(119.666)" fill="#e6e6e6"/>
              <rect id="Rectangle_1907" data-name="Rectangle 1907" width="5.149" height="82.539" transform="translate(124.271)" fill="#f0f0f0"/>
              <rect id="Rectangle_1908" data-name="Rectangle 1908" width="71.765" height="9.11" transform="translate(129.42 9.11) rotate(180)" fill="#f0f0f0"/>
              <rect id="Rectangle_1909" data-name="Rectangle 1909" width="7.415" height="73.429" transform="translate(52.778 9.11)" fill="#e6e6e6"/>
              <rect id="Rectangle_1910" data-name="Rectangle 1910" width="5.149" height="73.429" transform="translate(57.383 9.11)" fill="#f0f0f0"/>
              <rect id="Rectangle_1911" data-name="Rectangle 1911" width="7.415" height="73.429" transform="translate(0 9.11)" fill="#e6e6e6"/>
              <rect id="Rectangle_1912" data-name="Rectangle 1912" width="5.149" height="73.429" transform="translate(4.605 9.11)" fill="#f0f0f0"/>
              <rect id="Rectangle_1913" data-name="Rectangle 1913" width="7.415" height="73.429" transform="translate(72.745 9.11)" fill="#e6e6e6"/>
              <rect id="Rectangle_1914" data-name="Rectangle 1914" width="5.149" height="73.429" transform="translate(77.35 9.11)" fill="#f0f0f0"/>
              <rect id="Rectangle_1915" data-name="Rectangle 1915" width="57.655" height="9.11" fill="#e6e6e6"/>
            </g>
          </g>
          <g id="Group_356" data-name="Group 356" transform="translate(71.542)">
            <g id="Group_355" data-name="Group 355">
              <rect id="Rectangle_1916" data-name="Rectangle 1916" width="223.007" height="124.152" fill="#e0e0e0"/>
              <rect id="Rectangle_1917" data-name="Rectangle 1917" width="234.127" height="124.152" transform="translate(1.126)" fill="#f5f5f5"/>
              <rect id="Rectangle_1918" data-name="Rectangle 1918" width="116.502" height="226.477" transform="translate(231.428 3.825) rotate(90)" fill="#fff"/>
              <path id="Path_329" data-name="Path 329" d="M227.483,199.935l42.759-116.5H199.674l-42.759,116.5Z" transform="translate(-130.833 -79.608)" fill="#f5f5f5"/>
              <path id="Path_330" data-name="Path 330" d="M299.738,199.935,342.5,83.433H289.263L246.5,199.935Z" transform="translate(-135.162 -79.608)" fill="#f5f5f5"/>
            </g>
          </g>
          <g id="Group_358" data-name="Group 358" transform="translate(171.493 169.77)">
            <g id="Group_357" data-name="Group 357">
              <rect id="Rectangle_1919" data-name="Rectangle 1919" width="18.956" height="118.575" transform="translate(174.783)" fill="#e6e6e6"/>
              <path id="Path_331" data-name="Path 331" d="M432.608,381.935h4.985V372.8H427.382Z" transform="translate(-243.854 -263.36)" fill="#fafafa"/>
              <rect id="Rectangle_1920" data-name="Rectangle 1920" width="18.957" height="118.575" fill="#e6e6e6"/>
              <rect id="Rectangle_1921" data-name="Rectangle 1921" width="179.133" height="116.111" transform="translate(14.607)" fill="#fafafa"/>
              <path id="Path_332" data-name="Path 332" d="M425.8,295.5H253.446V262.711H425.8Zm-171.4-.952H424.845v-30.89H254.4Z" transform="translate(-235.449 -258.04)" fill="#e6e6e6"/>
              <path id="Path_333" data-name="Path 333" d="M396.476,278.841H288.154c-5.031,0-9.874-4.058-13.285-11.133l-.329-.682H410.091l-.329.682C406.35,274.783,401.507,278.841,396.476,278.841ZM276.064,267.978c3.22,6.311,7.6,9.912,12.09,9.912H396.476c4.492,0,8.871-3.6,12.091-9.912Z" transform="translate(-236.468 -258.249)" fill="#e6e6e6"/>
              <path id="Path_334" data-name="Path 334" d="M254.868,381.935h-4.985V372.8h10.211Z" transform="translate(-235.277 -263.36)" fill="#fafafa"/>
              <path id="Path_335" data-name="Path 335" d="M425.8,334.371H253.446V301.577H425.8Zm-171.4-.952H424.845V302.529H254.4Z" transform="translate(-235.449 -259.918)" fill="#e6e6e6"/>
              <path id="Path_336" data-name="Path 336" d="M396.476,317.707H288.154c-5.031,0-9.874-4.057-13.285-11.133l-.329-.682H410.091l-.329.682C406.35,313.65,401.507,317.707,396.476,317.707ZM276.064,306.844c3.22,6.31,7.6,9.912,12.09,9.912H396.476c4.493,0,8.871-3.6,12.091-9.912Z" transform="translate(-236.468 -260.127)" fill="#e6e6e6"/>
              <path id="Path_337" data-name="Path 337" d="M425.8,373.237H253.446V340.443H425.8Zm-171.4-.952H424.845V341.395H254.4Z" transform="translate(-235.449 -261.797)" fill="#e6e6e6"/>
              <path id="Path_338" data-name="Path 338" d="M396.476,356.573H288.154c-5.031,0-9.874-4.057-13.285-11.132l-.329-.683H410.091l-.329.683C406.35,352.516,401.507,356.573,396.476,356.573ZM276.064,345.71c3.22,6.311,7.6,9.912,12.09,9.912H396.476c4.493,0,8.871-3.6,12.091-9.912Z" transform="translate(-236.468 -262.005)" fill="#e6e6e6"/>
            </g>
          </g>
          <g id="Group_359" data-name="Group 359" transform="translate(0 119.865)">
            <path id="Path_339" data-name="Path 339" d="M119.8,274.283v2.3h-1.473l-1.216,18.049H99.186L97.97,276.585H96.5v-2.3Z" transform="translate(-56.371 -208.695)" fill="#e6e6e6"/>
            <path id="Path_340" data-name="Path 340" d="M111.863,226.155c-1.474-10.751-15.983-13.822-34.4-14.216-17.521-.374-23.133-6.574-23.133-6.574s.055,25.1,25.3,34.194C103.61,248.19,113.339,236.926,111.863,226.155Z" transform="translate(-54.334 -205.365)" fill="#e6e6e6"/>
            <path id="Path_341" data-name="Path 341" d="M105.377,252.187c.307-4.422,7.368-12.549,24.351-8.854,12.28,2.671,16.846-3.694,16.846-3.694s-1.137,17.967-19.606,23.368C109.43,268.136,104.835,259.964,105.377,252.187Z" transform="translate(-56.798 -207.021)" fill="#e6e6e6"/>
            <path id="Path_342" data-name="Path 342" d="M109.2,278.656a.653.653,0,0,0,.5-.232c1.231-1.455.224-4.939-1.17-9.762-1.789-6.19-4.015-13.893-2.13-19.486a78.575,78.575,0,0,1,3.653-8.635c2.666-5.638,4.968-10.507,3.048-15.59a.655.655,0,1,0-1.226.463c1.723,4.564-.364,8.979-3.006,14.568a80.714,80.714,0,0,0-3.711,8.775c-2.017,5.982.273,13.9,2.112,20.268,1.085,3.753,2.207,7.633,1.428,8.553a.655.655,0,0,0,.5,1.078Z" transform="translate(-56.752 -206.291)" fill="#e6e6e6"/>
          </g>
        </g>
      </g>
      <g id="Shadow" transform="translate(53.4 333.051)">
        <ellipse id="_Path_" data-name="&lt;Path&gt;" cx="184.52" cy="10.776" rx="184.52" ry="10.776" fill="#f5f5f5"/>
      </g>
      <g id="Login" transform="translate(95.346 67.228)">
        <g id="Group_363" data-name="Group 363">
          <path id="Path_343" data-name="Path 343" d="M242.723,350.013H107.585l-7.4-217.332H235.326Z" transform="translate(-100.188 -125.937)" fill="#6f971a"/>
          <g id="Group_361" data-name="Group 361" transform="translate(6.744)">
            <path id="Path_344" data-name="Path 344" d="M249.81,342.926H114.671l-7.4-217.332H242.412Z" transform="translate(-107.274 -125.594)" fill="#97240a"/>
            <path id="Path_345" data-name="Path 345" d="M249.81,342.926H114.671l-7.4-217.332H242.412Z" transform="translate(-107.274 -125.594)" fill="#8ecf00"/>
          </g>
          <g id="Group_362" data-name="Group 362" transform="translate(22.663 8.577)">
            <path id="Path_399" data-name="Path 399" d="M37.372,0c20.64,0,37.372,17.311,37.372,38.666S58.012,77.331,37.372,77.331,0,60.02,0,38.666,16.732,0,37.372,0Z" transform="matrix(0.701, -0.713, 0.713, 0.701, 0, 53.299)" fill="#97b555"/>
            <path id="Path_346" data-name="Path 346" d="M210.282,189.5A30.45,30.45,0,0,1,207,204.44a30.075,30.075,0,0,1-27.022,16.429,32.633,32.633,0,0,1-28.141-16.429,31.954,31.954,0,0,1-4.3-14.944,30.116,30.116,0,0,1,30.305-31.373A32.694,32.694,0,0,1,210.282,189.5Z" transform="translate(-125.137 -135.743)" fill="#fff"/>
            <path id="Path_347" data-name="Path 347" d="M207.218,206.368A30.075,30.075,0,0,1,180.2,222.8a32.633,32.633,0,0,1-28.141-16.429,48.113,48.113,0,0,1,27.3-8.357A50.844,50.844,0,0,1,207.218,206.368Z" transform="translate(-125.356 -137.671)" fill="#6f971a"/>
            <ellipse id="Ellipse_191" data-name="Ellipse 191" cx="13.739" cy="14.215" rx="13.739" ry="14.215" transform="matrix(0.701, -0.713, 0.713, 0.701, 33.638, 42.851)" fill="#6f971a"/>
          </g>
          <path id="Path_348" data-name="Path 348" d="M224.118,270.391H137.91l-.583-17.13h86.208Z" transform="translate(-101.982 -131.763)" fill="#fff"/>
          <path id="Path_349" data-name="Path 349" d="M225.213,302.564H139.005l-.583-17.13H224.63Z" transform="translate(-102.035 -133.318)" fill="#fff"/>
          <path id="Path_350" data-name="Path 350" d="M193.538,287.907l-20.773,2.825a1.45,1.45,0,0,0-1.253,1.72l2.728,13.921a1.668,1.668,0,0,0,1.845,1.3l20.773-2.825a1.448,1.448,0,0,0,1.253-1.72l-2.728-13.921A1.671,1.671,0,0,0,193.538,287.907Zm-5.969,14.1-3.761.512-.379-4.494a2.648,2.648,0,0,1-1.544-1.9,2.365,2.365,0,0,1,2.049-2.812,2.722,2.722,0,0,1,3.011,2.124,2.316,2.316,0,0,1-.738,2.21Z" transform="translate(-103.633 -133.437)" fill="#9f9f9f"/>
          <path id="Path_351" data-name="Path 351" d="M191.532,286.541h0a1.477,1.477,0,0,1-1.637-1.153l-.267-1.363a7.832,7.832,0,0,0-8.2-6.243,6.7,6.7,0,0,0-6.155,7.988l.307,1.565a1.282,1.282,0,0,1-1.112,1.526h0a1.475,1.475,0,0,1-1.637-1.152l-.26-1.328a9.373,9.373,0,0,1,7.589-11.178,10.653,10.653,0,0,1,12.181,8.246l.306,1.564A1.283,1.283,0,0,1,191.532,286.541Z" transform="translate(-103.676 -132.816)" fill="#9f9f9f"/>
          <path id="Path_352" data-name="Path 352" d="M211.8,328.073H155.684l-.379-11.15h56.114Z" transform="translate(-102.851 -134.84)" fill="#fff"/>
          <path id="Path_353" data-name="Path 353" d="M185.9,262.1a3.008,3.008,0,0,1-3.026,3.133,3.266,3.266,0,0,1-3.24-3.133,3.009,3.009,0,0,1,3.027-3.133A3.265,3.265,0,0,1,185.9,262.1Z" transform="translate(-104.026 -132.039)" fill="#263238"/>
          <path id="Path_354" data-name="Path 354" d="M171.727,262.1a3.008,3.008,0,0,1-3.026,3.133,3.266,3.266,0,0,1-3.24-3.133,3.008,3.008,0,0,1,3.026-3.133A3.266,3.266,0,0,1,171.727,262.1Z" transform="translate(-103.341 -132.039)" fill="#263238"/>
          <path id="Path_355" data-name="Path 355" d="M157.554,262.1a3.008,3.008,0,0,1-3.027,3.133,3.265,3.265,0,0,1-3.24-3.133,3.008,3.008,0,0,1,3.026-3.133A3.266,3.266,0,0,1,157.554,262.1Z" transform="translate(-102.657 -132.039)" fill="#263238"/>
          <path id="Path_356" data-name="Path 356" d="M200.073,262.1a3.008,3.008,0,0,1-3.026,3.133,3.265,3.265,0,0,1-3.24-3.133,3.008,3.008,0,0,1,3.026-3.133A3.265,3.265,0,0,1,200.073,262.1Z" transform="translate(-104.711 -132.039)" fill="#263238"/>
          <path id="Path_357" data-name="Path 357" d="M214.247,262.1a3.009,3.009,0,0,1-3.027,3.133,3.265,3.265,0,0,1-3.24-3.133,3.008,3.008,0,0,1,3.026-3.133A3.266,3.266,0,0,1,214.247,262.1Z" transform="translate(-105.396 -132.039)" fill="#263238"/>
        </g>
      </g>
      <g id="Character" transform="translate(262.994 69.091)">
        <g id="Group_368" data-name="Group 368">
          <path id="Path_358" data-name="Path 358" d="M333.469,174.28c1.269,2.032,2.318,3.983,3.406,6.007,1.084,2,2.065,4.066,3.026,6.144a88.4,88.4,0,0,1,4.854,13.068c.169.564.3,1.161.44,1.746l.208.881.1.44.123.726a12.719,12.719,0,0,1-.3,4.9,27.759,27.759,0,0,1-2.961,7.1,56.643,56.643,0,0,1-8.457,11.109l-4.007-3.034a106.5,106.5,0,0,0,5.365-11.455,24.168,24.168,0,0,0,1.452-5.36,4.232,4.232,0,0,0-.078-1.682l-.377-1.163c-.156-.478-.294-.953-.483-1.434a105.208,105.208,0,0,0-5.014-11.5c-1.872-3.789-3.947-7.646-5.989-11.246Z" transform="translate(-278.688 -129.81)" fill="#ff8b7b"/>
          <path id="Path_359" data-name="Path 359" d="M331.014,224.425l-4.37,2.32,5.024,5.881s3.136-2.121,3.277-5.361Z" transform="translate(-278.778 -132.233)" fill="#ff8b7b"/>
          <path id="Path_360" data-name="Path 360" d="M320.466,230.489l5.383,4.271,5.52-2.015-5.023-5.882Z" transform="translate(-278.479 -132.351)" fill="#ff8b7b"/>
          <path id="Path_361" data-name="Path 361" d="M301.086,141.509c-.108.529-.475.9-.821.83s-.539-.556-.431-1.085.475-.9.821-.831S301.193,140.98,301.086,141.509Z" transform="translate(-277.481 -128.174)" fill="#263238"/>
          <path id="Path_362" data-name="Path 362" d="M300.528,142.522a19.322,19.322,0,0,1-3.448,4.011,3.112,3.112,0,0,0,2.432.988Z" transform="translate(-277.349 -128.275)" fill="#ff5652"/>
          <path id="Path_363" data-name="Path 363" d="M298.9,161.821l.041-6.237,8.261,1s-.142,5.364-4.755,6.941Z" transform="translate(-277.437 -128.907)" fill="#ff8b7b"/>
          <path id="Path_364" data-name="Path 364" d="M301.277,150.864l5.817,1.671.111,3.819-8.261-1Z" transform="translate(-277.439 -128.678)" fill="#ff8b7b"/>
          <path id="Path_365" data-name="Path 365" d="M307.157,152.535l-5.815-1.675-1.133,2.17a9.263,9.263,0,0,0,5.368,8.07,9.1,9.1,0,0,0,1.684-4.749Z" transform="translate(-277.5 -128.678)" opacity="0.2"/>
          <path id="Path_366" data-name="Path 366" d="M303.675,138.81a.313.313,0,0,0,.215-.085.316.316,0,0,0,.018-.447,3.147,3.147,0,0,0-2.7-1.05.317.317,0,0,0,.1.625h0a2.515,2.515,0,0,1,2.127.855A.317.317,0,0,0,303.675,138.81Z" transform="translate(-277.536 -128.018)" fill="#263238"/>
          <path id="Path_367" data-name="Path 367" d="M315.844,151.683c-.96,4.9-1.54,11.682,1.886,14.95,0,0-1.339,4.968-10.438,4.968-10.006,0-4.814-4.36-4.814-4.36,4.159-1.291,4.123-6.029,3.172-9.834Z" transform="translate(-277.545 -128.718)" fill="#ff8b7b"/>
          <path id="Path_368" data-name="Path 368" d="M319.621,170.486c.891-1.262.855-5.249-.1-5.952-1.536-1.136-8.105-1.4-16.955.639.953,3.862-1.088,5.886-1.088,5.886Z" transform="translate(-277.562 -129.297)" fill="#8ecf00"/>
          <path id="Path_369" data-name="Path 369" d="M351.7,408.165a2.156,2.156,0,0,1-1.666-.091.647.647,0,0,1-.153-.737.734.734,0,0,1,.408-.466c.9-.431,2.981.415,3.069.451a.16.16,0,0,1,.1.142.158.158,0,0,1-.089.148A8.423,8.423,0,0,1,351.7,408.165Zm-1.089-1.07a.86.86,0,0,0-.187.062.425.425,0,0,0-.241.27c-.085.286.021.375.056.4.36.306,1.7.024,2.638-.353A5.229,5.229,0,0,0,350.612,407.1Z" transform="translate(-279.898 -141.043)" fill="#e8b526"/>
          <path id="Path_370" data-name="Path 370" d="M353.382,407.531a.151.151,0,0,1-.077,0c-.757-.221-2.376-1.371-2.4-2.13a.518.518,0,0,1,.406-.513.864.864,0,0,1,.7.056c.895.457,1.46,2.311,1.484,2.389a.161.161,0,0,1-.039.158A.164.164,0,0,1,353.382,407.531Zm-1.894-2.366a.635.635,0,0,0-.069.019c-.2.068-.193.165-.192.206.011.449,1.079,1.351,1.863,1.717a3.825,3.825,0,0,0-1.216-1.883A.563.563,0,0,0,351.489,405.165Z" transform="translate(-279.95 -140.951)" fill="#e8b526"/>
          <path id="Path_371" data-name="Path 371" d="M299.759,409.335c-.858,0-1.688-.118-1.966-.5a.6.6,0,0,1,.013-.693.789.789,0,0,1,.5-.37c1.114-.3,3.453,1.03,3.553,1.087a.159.159,0,0,1-.048.293A11.79,11.79,0,0,1,299.759,409.335Zm-1.061-1.3a1.181,1.181,0,0,0-.306.036.479.479,0,0,0-.31.222c-.112.2-.071.295-.031.351.312.432,2,.443,3.248.266A7.157,7.157,0,0,0,298.7,408.037Z" transform="translate(-277.379 -141.09)" fill="#e8b526"/>
          <path id="Path_372" data-name="Path 372" d="M301.869,409.069a.156.156,0,0,1-.065-.014c-.808-.363-2.409-1.81-2.286-2.567.029-.178.155-.4.59-.444a1.156,1.156,0,0,1,.879.272,4.527,4.527,0,0,1,1.039,2.579.158.158,0,0,1-.065.144A.164.164,0,0,1,301.869,409.069Zm-1.633-2.714a.789.789,0,0,0-.1.006c-.286.028-.3.141-.309.178-.073.454,1.015,1.592,1.839,2.087a3.717,3.717,0,0,0-.884-2.064A.843.843,0,0,0,300.236,406.355Z" transform="translate(-277.467 -141.009)" fill="#e8b526"/>
          <path id="Path_373" data-name="Path 373" d="M309.35,408.269h-6.694l-.667-15.5h6.694Z" transform="translate(-277.586 -140.368)" fill="#ff8b7b"/>
          <path id="Path_374" data-name="Path 374" d="M360.684,405.067l-6.542,1.417-6.568-14.439,6.542-1.416Z" transform="translate(-279.789 -140.264)" fill="#ff8b7b"/>
          <path id="Path_375" data-name="Path 375" d="M353.331,406.517l7.35-1.591a.584.584,0,0,1,.654.326l2.551,5.535a.985.985,0,0,1-.706,1.371c-2.575.511-3.854.631-7.087,1.33-1.988.43-6.477,1.524-9.224,2.118-2.686.581-3.693-2.043-2.621-2.532,4.8-2.194,6.808-4.126,8.107-5.926A1.628,1.628,0,0,1,353.331,406.517Z" transform="translate(-279.608 -140.954)" fill="#263238"/>
          <path id="Path_376" data-name="Path 376" d="M301.915,408.242h7.311a.583.583,0,0,1,.569.457l1.323,5.95a.973.973,0,0,1-.963,1.191c-2.637-.045-6.448-.2-9.761-.2-3.876,0-7.223.211-11.768.211-2.747,0-3.511-2.778-2.36-3.03,5.236-1.145,9.512-1.268,14.037-4.058A3.1,3.1,0,0,1,301.915,408.242Z" transform="translate(-276.802 -141.115)" fill="#263238"/>
          <g id="Group_364" data-name="Group 364" transform="translate(43.707 39.248)">
            <path id="Path_377" data-name="Path 377" d="M330.737,168.973c6.273,1.439,11.446,17.455,11.446,17.455l-12.6,9.6a27.49,27.49,0,0,1-6.682-12.371C320.746,175.264,324.322,167.5,330.737,168.973Z" transform="translate(-322.274 -168.793)" fill="#f8d04e"/>
            <path id="Path_378" data-name="Path 378" d="M330.737,168.973c6.273,1.439,11.446,17.455,11.446,17.455l-12.6,9.6a27.49,27.49,0,0,1-6.682-12.371C320.746,175.264,324.322,167.5,330.737,168.973Z" transform="translate(-322.274 -168.793)" fill="#8ecf00" opacity="0.4"/>
          </g>
          <path id="Path_379" data-name="Path 379" d="M295.528,187.619c-1.567,1.689-3.127,3.192-4.744,4.739q-1.2,1.152-2.461,2.261l-1.264,1.107-.319.275c-.154.132-.342.289-.542.443a7.986,7.986,0,0,1-1.839,1.085,6.053,6.053,0,0,1-2.314.479,5.616,5.616,0,0,1-2-.355,5.554,5.554,0,0,1-1.9-1.211,5.746,5.746,0,0,1-1.492-2.464,6.888,6.888,0,0,1-.271-1.415,9.165,9.165,0,0,1,.019-1.7c.045-.457.107-.852.177-1.225a23.95,23.95,0,0,1,1.1-3.836,35.672,35.672,0,0,1,1.479-3.44c.6-1.211,1.188-2.091,1.768-3.105a77.67,77.67,0,0,1,8.044-10.9,73.444,73.444,0,0,1,9.757-9.248l3.5,3.6c-2.46,3.291-4.879,6.82-7.116,10.3a111.994,111.994,0,0,0-6.089,10.7c-.411.9-.917,1.879-1.2,2.629a26.323,26.323,0,0,0-.893,2.567,18.2,18.2,0,0,0-.541,2.4,3.467,3.467,0,0,0-.031.376c0,.074.017.114.008-.088a2.7,2.7,0,0,0-.123-.623,4.125,4.125,0,0,0-1.1-1.769,4.558,4.558,0,0,0-3.17-1.286,4.014,4.014,0,0,0-1.535.293,3.949,3.949,0,0,0-.471.235l.365-.333,1.142-1.048,2.275-2.131c1.507-1.419,3.021-2.932,4.452-4.336Z" transform="translate(-276.347 -129.077)" fill="#ff8b7b"/>
          <path id="Path_380" data-name="Path 380" d="M325.375,181.358c3.408,3.372,4.52,9.513,4.783,14.853l-.556.428a27.511,27.511,0,0,1-6.687-12.374c-.128-.5-.237-1-.328-1.5Z" transform="translate(-278.582 -130.152)" opacity="0.2"/>
          <g id="Group_365" data-name="Group 365" transform="translate(11.382 37.691)">
            <path id="Path_381" data-name="Path 381" d="M289.45,175.606c-1.368,7.232-2.224,22.082,1.748,51.491H327c.247-5.5-3.206-32.307,2.095-58.2a93.389,93.389,0,0,0-11.985-1.513,131.5,131.5,0,0,0-15.22,0c-1.679.154-3.326.4-4.795.656A9.474,9.474,0,0,0,289.45,175.606Z" transform="translate(-288.307 -167.157)" fill="#e8b526"/>
            <path id="Path_382" data-name="Path 382" d="M289.45,175.606c-1.368,7.232-2.224,22.082,1.748,51.491H327c.247-5.5-3.206-32.307,2.095-58.2a93.389,93.389,0,0,0-11.985-1.513,131.5,131.5,0,0,0-15.22,0c-1.679.154-3.326.4-4.795.656A9.474,9.474,0,0,0,289.45,175.606Z" transform="translate(-288.307 -167.157)" fill="#6f971a" opacity="0.4"/>
          </g>
          <path id="Path_383" data-name="Path 383" d="M294.929,187.187l-6.47-1.549c-.2,3.918-.218,8.775.073,14.78C291.512,197.028,295.312,191.743,294.929,187.187Z" transform="translate(-276.925 -130.359)" opacity="0.2"/>
          <g id="Group_366" data-name="Group 366" transform="translate(24.405 250.368)">
            <path id="Path_384" data-name="Path 384" d="M301.991,392.772l.342,7.99h6.7l-.342-7.99Z" transform="translate(-301.991 -390.735)" opacity="0.2"/>
            <path id="Path_385" data-name="Path 385" d="M354.118,390.632l-6.545,1.417,3.389,7.442,6.545-1.417Z" transform="translate(-304.194 -390.632)" opacity="0.2"/>
          </g>
          <path id="Path_386" data-name="Path 386" d="M318.92,143.57c-1.72,6.417-2.4,10.26-6.36,12.929-5.957,4.013-13.373-.593-13.6-7.395-.209-6.121,2.638-15.587,9.524-16.88A9.061,9.061,0,0,1,318.92,143.57Z" transform="translate(-277.439 -127.77)" fill="#ff8b7b"/>
          <path id="Path_387" data-name="Path 387" d="M304.1,143.905c-.317-.861-1.8-7.493-.408-9.213s17.236-.483,19.579,1.822c3.887,3.825,1.191,7.238-3.065,11.643-3.2,3.311-3.323,7.044-4.937,7.592-2.828.96-7.214.058-8.094-2.962S304.1,143.905,304.1,143.905Z" transform="translate(-277.64 -127.858)" fill="#634509"/>
          <path id="Path_388" data-name="Path 388" d="M321.168,128.665c-5.6-2.384-16.1.253-21.77-1.113a8.734,8.734,0,0,0,7.238,8.91,74.665,74.665,0,0,0,14.275,1.316C327.139,137.525,325.923,130.691,321.168,128.665Z" transform="translate(-277.46 -127.552)" fill="#634509"/>
          <path id="Path_389" data-name="Path 389" d="M323.194,136.8a10.623,10.623,0,0,0,5.922-1.136C330.167,138.2,324.41,138.892,323.194,136.8Z" transform="translate(-278.611 -127.944)" fill="#263238"/>
          <path id="Path_390" data-name="Path 390" d="M307.091,144.55a7.51,7.51,0,0,1-1.881,4.44c-1.459,1.608-2.983.607-3.24-1.351-.233-1.762.246-4.722,2.03-5.609C305.758,141.155,307.209,142.563,307.091,144.55Z" transform="translate(-277.583 -128.239)" fill="#ff8b7b"/>
          <path id="Path_391" data-name="Path 391" d="M304.69,230.14s7.6,51.157,11.767,70.321c4.567,20.987,29.056,90.423,29.056,90.423l11.983-2.594s-17.124-56.585-20.957-85.925c-2.944-22.538-8.746-72.224-8.746-72.224Z" transform="translate(-277.717 -132.509)" fill="#777"/>
          <path id="Path_392" data-name="Path 392" d="M344.571,394.708c-.051.01,2.234,4.333,2.234,4.333l13.482-2.919-1.136-4.053Z" transform="translate(-279.644 -140.334)" fill="#e8b526"/>
          <path id="Path_393" data-name="Path 393" d="M309.635,249.289c8.784,1.723,7.855,34.479,6.8,51.328-2.533-11.909-6.242-34.826-8.775-51.091A3,3,0,0,1,309.635,249.289Z" transform="translate(-277.86 -133.431)" opacity="0.3"/>
          <path id="Path_394" data-name="Path 394" d="M291.321,230.14s-.922,50.049-.194,70.462c.758,21.232,8.174,90.754,8.174,90.754H310.64s.417-68.281.921-89.134c.55-22.733,3.295-72.082,3.295-72.082Z" transform="translate(-277.048 -132.509)" fill="#777"/>
          <path id="Path_395" data-name="Path 395" d="M297.437,394.8c-.052,0,.639,4.708.639,4.708h13.795l.373-4.2Z" transform="translate(-277.366 -140.465)" fill="#e8b526"/>
          <g id="Group_367" data-name="Group 367" transform="translate(2.745 38.62)">
            <path id="Path_396" data-name="Path 396" d="M303.043,177.849c3.209,8.65-15.648,18.838-15.648,18.838l-8.163-10.5s5.446-10.841,12.129-15.726C299.618,164.429,300.6,171.264,303.043,177.849Z" transform="translate(-279.232 -168.133)" fill="#f8d04e"/>
            <path id="Path_397" data-name="Path 397" d="M303.043,177.849c3.209,8.65-15.648,18.838-15.648,18.838l-8.163-10.5s5.446-10.841,12.129-15.726C299.618,164.429,300.6,171.264,303.043,177.849Z" transform="translate(-279.232 -168.133)" fill="#8ecf00" opacity="0.4"/>
          </g>
        </g>
      </g>
      <g id="Thinking" transform="translate(312.874 7.975)">
        <g id="Group_369" data-name="Group 369">
          <path id="Path_19070" data-name="Path 19070" d="M34.343,0C53.31,0,68.686,9.8,68.686,21.889S53.31,43.777,34.343,43.777,0,33.977,0,21.889,15.376,0,34.343,0Z" transform="translate(16.205)" fill="#8ecf00"/>
          <path id="Path_398" data-name="Path 398" d="M368.359,96.929a9.624,9.624,0,0,1-9.448-7.987,9.725,9.725,0,0,1,7.336-11.006h0a9.572,9.572,0,0,1,10.3,4.3l22.047-4.55a3.45,3.45,0,0,1,4.041,2.376,3.32,3.32,0,0,1-2.541,4.1l-.579.12a.577.577,0,0,0-.4.293.584.584,0,0,0-.033.494l.388,1.011a1.509,1.509,0,0,1-.586,1.83,1.855,1.855,0,0,0-.855,1.346,1.472,1.472,0,0,1-1.146,1.321l-.453.093a1.478,1.478,0,0,1-1.575-.758,1.851,1.851,0,0,0-3.436.709,1.476,1.476,0,0,1-1.147,1.319l-.444.091a1.479,1.479,0,0,1-1.574-.758,1.86,1.86,0,0,0-1.325-.9,1.51,1.51,0,0,1-1.265-1.448l-.044-1.082a.573.573,0,0,0-.225-.44.58.58,0,0,0-.483-.113l-7.025,1.45a9.593,9.593,0,0,1-7.567,7.987A9.727,9.727,0,0,1,368.359,96.929Zm-1.9-18.066a8.761,8.761,0,0,0-6.608,9.917,8.662,8.662,0,0,0,17.143-.492l.039-.343,7.694-1.588a1.54,1.54,0,0,1,1.851,1.447l.044,1.082a.564.564,0,0,0,.453.545,2.787,2.787,0,0,1,2.008,1.36.541.541,0,0,0,.56.3l.444-.091a.543.543,0,0,0,.394-.5,2.8,2.8,0,0,1,5.2-1.074.535.535,0,0,0,.559.3l.454-.093a.536.536,0,0,0,.391-.5,2.776,2.776,0,0,1,1.3-2.044.563.563,0,0,0,.2-.68l-.388-1.012a1.54,1.54,0,0,1,1.128-2.061l.579-.12a2.367,2.367,0,0,0,1.813-2.924,2.487,2.487,0,0,0-2.929-1.684L376.071,83.3l-.17-.3a8.618,8.618,0,0,0-9.443-4.141Zm1.914,14.547a6.109,6.109,0,1,1,1.243-.127h0A6.2,6.2,0,0,1,368.372,93.411Zm.029-11.242a5.257,5.257,0,0,0-1.057.109,5.143,5.143,0,0,0,2.08,10.074h0A5.144,5.144,0,0,0,368.4,82.169Z" transform="translate(-330.21 -64.023)" fill="#fff"/>
          <ellipse id="Ellipse_193" data-name="Ellipse 193" cx="11.288" cy="7.194" rx="11.288" ry="7.194" transform="translate(11.301 42.221)" fill="#8ecf00" opacity="0.6"/>
          <ellipse id="Ellipse_194" data-name="Ellipse 194" cx="4.634" cy="2.953" rx="4.634" ry="2.953" transform="translate(0 53.657)" fill="#8ecf00" opacity="0.3"/>
        </g>
      </g>
    </g>
  </g>
</svg>
